<?xml version="1.0" encoding="utf-8"?>
<!-- Generator: Adobe Illustrator 21.1.0, SVG Export Plug-In . SVG Version: 6.00 Build 0)  -->
<svg version="1.1" id="Calque_1" xmlns="http://www.w3.org/2000/svg" xmlns:xlink="http://www.w3.org/1999/xlink" x="0px" y="0px"
	 viewBox="0 0 141.73 107.453" style="enable-background:new 0 0 141.73 107.453;" xml:space="preserve">
<style type="text/css">
	.st0{fill:#B71817;}
	.st1{fill:#1E4C79;}
	.st2{fill:#A6A6A6;}
</style>
<g>
	<g>
		<path class="st0" d="M4.274,96.445v2.306h3.295v0.84H4.274v3.115H3.385v-7.079h4.583v0.818H4.274z"/>
		<path class="st0" d="M13.099,102.706l-0.579-1.677H9.444l-0.568,1.677h-0.9l2.496-7.079h1.039l2.507,7.079H13.099z M10.972,96.515
			l-1.248,3.674h2.507L10.972,96.515z"/>
		<path class="st0" d="M19.684,101.358c-0.123,0.273-0.289,0.516-0.495,0.729c-0.213,0.213-0.488,0.393-0.82,0.538
			c-0.334,0.147-0.694,0.221-1.082,0.221c-0.36,0-0.707-0.064-1.04-0.19c-0.334-0.127-0.628-0.317-0.88-0.569
			c-0.194-0.187-0.348-0.391-0.465-0.614c-0.116-0.224-0.205-0.458-0.269-0.705c-0.064-0.247-0.105-0.504-0.125-0.773
			c-0.02-0.269-0.03-0.545-0.03-0.823c0-0.281,0.01-0.555,0.03-0.824c0.019-0.271,0.061-0.528,0.125-0.775
			c0.064-0.246,0.154-0.481,0.269-0.703c0.117-0.222,0.272-0.428,0.465-0.615c0.252-0.252,0.546-0.442,0.88-0.568
			c0.333-0.126,0.68-0.19,1.04-0.19c0.387,0,0.746,0.069,1.076,0.204c0.33,0.138,0.602,0.312,0.815,0.525
			c0.207,0.213,0.372,0.453,0.495,0.718c0.124,0.268,0.193,0.567,0.205,0.9h-0.92c-0.007-0.193-0.046-0.373-0.116-0.54
			s-0.161-0.316-0.274-0.449c-0.14-0.154-0.321-0.278-0.541-0.375c-0.22-0.096-0.467-0.146-0.741-0.146
			c-0.239,0-0.472,0.047-0.696,0.14c-0.224,0.094-0.421,0.226-0.595,0.399c-0.147,0.152-0.26,0.324-0.339,0.508
			c-0.081,0.187-0.14,0.382-0.181,0.585c-0.04,0.203-0.064,0.408-0.07,0.614c-0.007,0.207-0.009,0.403-0.009,0.59
			c0,0.185,0.003,0.382,0.009,0.588c0.007,0.207,0.03,0.411,0.07,0.614c0.04,0.204,0.1,0.4,0.179,0.59
			c0.081,0.19,0.194,0.358,0.339,0.504c0.173,0.173,0.372,0.306,0.594,0.399c0.224,0.092,0.455,0.139,0.694,0.139
			c0.273,0,0.521-0.051,0.744-0.153c0.224-0.104,0.404-0.231,0.545-0.385c0.113-0.133,0.204-0.289,0.274-0.465
			c0.07-0.175,0.108-0.36,0.114-0.554h0.93C19.875,100.782,19.808,101.086,19.684,101.358z"/>
		<path class="st0" d="M26.069,101.279c-0.12,0.339-0.292,0.624-0.519,0.853c-0.226,0.23-0.498,0.406-0.814,0.525
			c-0.316,0.12-0.674,0.179-1.073,0.179c-0.4,0-0.758-0.06-1.074-0.179c-0.316-0.12-0.588-0.295-0.814-0.525
			c-0.226-0.229-0.399-0.514-0.519-0.853c-0.121-0.341-0.181-0.729-0.181-1.169v-4.483h0.889v4.496c0,0.279,0.031,0.536,0.095,0.768
			c0.062,0.232,0.161,0.429,0.294,0.593c0.134,0.163,0.308,0.289,0.525,0.38c0.216,0.088,0.477,0.133,0.784,0.133
			c0.306,0,0.567-0.044,0.783-0.133c0.217-0.091,0.391-0.217,0.525-0.38c0.133-0.164,0.23-0.361,0.294-0.593
			c0.064-0.233,0.095-0.489,0.095-0.768v-4.496h0.889v4.483C26.25,100.549,26.19,100.938,26.069,101.279z"/>
		<path class="st0" d="M28.046,102.706v-7.079h0.889v6.241h3.404v0.839H28.046z"/>
		<path class="st0" d="M34.568,96.466v6.241h-0.9v-6.241h-2.106v-0.839h5.112v0.839H34.568z"/>
		<path class="st0" d="M37.802,102.706v-7.079h4.732v0.818h-3.843v2.158h3.374v0.837h-3.374v2.447h3.843v0.819H37.802z
			 M39.409,95.179l-0.299-0.471l1.698-1.227l0.449,0.709L39.409,95.179z"/>
		<path class="st0" d="M51.571,99.162c0,0.252-0.012,0.51-0.035,0.768c-0.023,0.259-0.066,0.511-0.129,0.754
			c-0.064,0.243-0.155,0.476-0.276,0.698c-0.12,0.224-0.276,0.429-0.469,0.614c-0.252,0.241-0.538,0.419-0.858,0.536
			c-0.32,0.116-0.653,0.174-0.998,0.174h-2.466v-7.079h2.466c0.346,0,0.679,0.06,0.998,0.179c0.32,0.121,0.606,0.3,0.858,0.54
			c0.194,0.186,0.35,0.39,0.469,0.608c0.121,0.221,0.212,0.451,0.276,0.694c0.062,0.243,0.105,0.493,0.129,0.749
			C51.559,98.654,51.571,98.909,51.571,99.162z M50.672,99.162c0-0.187-0.005-0.382-0.014-0.585c-0.01-0.203-0.038-0.4-0.081-0.593
			c-0.043-0.194-0.104-0.38-0.185-0.559c-0.079-0.181-0.19-0.343-0.329-0.49c-0.166-0.166-0.36-0.29-0.58-0.369
			c-0.22-0.079-0.446-0.121-0.679-0.121h-1.577v5.442h1.577c0.233,0,0.459-0.039,0.679-0.12c0.22-0.081,0.414-0.203,0.58-0.369
			c0.139-0.14,0.25-0.299,0.329-0.478c0.081-0.181,0.142-0.369,0.185-0.564c0.043-0.198,0.07-0.397,0.081-0.601
			C50.667,99.552,50.672,99.355,50.672,99.162z"/>
		<path class="st0" d="M53.098,102.706v-7.079h4.732v0.818h-3.843v2.158h3.374v0.837h-3.374v2.447h3.843v0.819H53.098z"/>
		<path class="st0" d="M66.866,99.162c0,0.252-0.012,0.51-0.035,0.768c-0.023,0.259-0.066,0.511-0.129,0.754
			c-0.064,0.243-0.155,0.476-0.276,0.698c-0.12,0.224-0.276,0.429-0.469,0.614c-0.252,0.241-0.538,0.419-0.858,0.536
			c-0.32,0.116-0.653,0.174-0.998,0.174h-2.466v-7.079h2.466c0.346,0,0.679,0.06,0.998,0.179c0.32,0.121,0.606,0.3,0.858,0.54
			c0.194,0.186,0.35,0.39,0.469,0.608c0.121,0.221,0.212,0.451,0.276,0.694c0.062,0.243,0.105,0.493,0.129,0.749
			S66.866,98.909,66.866,99.162z M65.968,99.162c0-0.187-0.005-0.382-0.014-0.585c-0.01-0.203-0.038-0.4-0.081-0.593
			c-0.043-0.194-0.104-0.38-0.185-0.559c-0.079-0.181-0.19-0.343-0.329-0.49c-0.166-0.166-0.36-0.29-0.58-0.369
			c-0.22-0.079-0.446-0.121-0.679-0.121h-1.577v5.442h1.577c0.233,0,0.459-0.039,0.679-0.12c0.22-0.081,0.413-0.203,0.58-0.369
			c0.139-0.14,0.25-0.299,0.329-0.478c0.081-0.181,0.142-0.369,0.185-0.564c0.043-0.198,0.07-0.397,0.081-0.601
			C65.963,99.552,65.968,99.355,65.968,99.162z"/>
		<path class="st0" d="M72.578,102.706L71.24,99.76h-1.957v2.946h-0.889v-7.079h2.776c0.42,0,0.775,0.055,1.069,0.165
			c0.293,0.109,0.536,0.264,0.728,0.463c0.174,0.181,0.311,0.387,0.41,0.62c0.1,0.233,0.151,0.506,0.151,0.818
			c0,0.315-0.047,0.58-0.14,0.8c-0.094,0.22-0.226,0.42-0.399,0.599c-0.107,0.113-0.231,0.211-0.374,0.294s-0.302,0.152-0.475,0.205
			l1.418,3.115H72.578z M72.608,97.689c0-0.445-0.135-0.763-0.404-0.956c-0.269-0.192-0.614-0.289-1.034-0.289h-1.886v2.478h1.886
			c0.207,0,0.398-0.023,0.575-0.065c0.176-0.044,0.329-0.114,0.459-0.214c0.13-0.1,0.23-0.228,0.299-0.384
			C72.573,98.105,72.608,97.914,72.608,97.689z"/>
		<path class="st0" d="M80.166,99.173c0,0.278-0.012,0.554-0.035,0.823c-0.023,0.269-0.067,0.527-0.13,0.773
			c-0.064,0.247-0.155,0.481-0.274,0.705c-0.121,0.222-0.277,0.426-0.469,0.614c-0.253,0.252-0.545,0.442-0.874,0.569
			c-0.33,0.126-0.675,0.19-1.033,0.19c-0.36,0-0.705-0.064-1.034-0.19c-0.33-0.127-0.621-0.317-0.874-0.569
			c-0.194-0.187-0.35-0.391-0.469-0.614c-0.12-0.224-0.212-0.458-0.274-0.705c-0.064-0.247-0.107-0.504-0.13-0.773
			c-0.023-0.269-0.035-0.545-0.035-0.823c0-0.281,0.012-0.555,0.035-0.824c0.023-0.271,0.066-0.528,0.13-0.775
			c0.062-0.246,0.155-0.481,0.274-0.703c0.12-0.222,0.276-0.428,0.469-0.615c0.252-0.252,0.543-0.442,0.874-0.568
			c0.329-0.126,0.674-0.19,1.034-0.19c0.359,0,0.703,0.064,1.033,0.19c0.329,0.126,0.62,0.316,0.874,0.568
			c0.192,0.187,0.348,0.393,0.469,0.615c0.12,0.222,0.211,0.458,0.274,0.703c0.062,0.247,0.107,0.504,0.13,0.775
			C80.155,98.617,80.166,98.892,80.166,99.173z M79.247,99.173c0-0.187-0.005-0.385-0.016-0.593
			c-0.009-0.205-0.034-0.411-0.074-0.616c-0.04-0.203-0.1-0.398-0.179-0.585c-0.081-0.187-0.194-0.358-0.339-0.512
			c-0.174-0.173-0.372-0.304-0.594-0.395c-0.224-0.09-0.455-0.135-0.694-0.135c-0.241,0-0.471,0.045-0.694,0.135
			c-0.224,0.091-0.421,0.222-0.594,0.395c-0.147,0.155-0.26,0.325-0.339,0.512c-0.079,0.187-0.14,0.382-0.179,0.585
			c-0.04,0.205-0.065,0.411-0.075,0.616c-0.01,0.208-0.014,0.406-0.014,0.593c0,0.186,0.004,0.382,0.014,0.59
			c0.01,0.208,0.035,0.412,0.075,0.616c0.039,0.203,0.1,0.4,0.179,0.591c0.079,0.19,0.192,0.359,0.339,0.506
			c0.173,0.174,0.371,0.306,0.594,0.395c0.224,0.091,0.454,0.135,0.694,0.135c0.239,0,0.471-0.044,0.694-0.135
			c0.222-0.09,0.42-0.221,0.594-0.395c0.146-0.147,0.259-0.316,0.339-0.506c0.079-0.191,0.139-0.389,0.179-0.591
			c0.04-0.204,0.065-0.408,0.074-0.616C79.242,99.555,79.247,99.359,79.247,99.173z"/>
		<path class="st0" d="M81.694,102.706v-7.079h0.919v7.079H81.694z"/>
		<path class="st0" d="M86.737,96.466v6.241h-0.9v-6.241h-2.106v-0.839h5.112v0.839H86.737z"/>
	</g>
</g>
<g>
	<g>
		<path class="st1" d="M77.974,46.548h9.759V15.78h-9.759V46.548z M65.155,15.894c-3.56,0-7.577,1.897-9.356,4.938h-0.117
			l0.008-3.945c0,0.007,0,0.012,0,0.019c0-0.01,0-0.018,0-0.028c0-0.039,0-0.081,0-0.121c0-0.307,0-0.62,0-0.978h-9.759v16.934
			c0,5.281-3.217,6.662-5.338,6.662c-3.102,0-4.821-1.381-4.821-5.339V15.78h-9.759v18.884c0,7.807,2.468,12.744,11.02,12.744
			c3.445,0,7.234-1.893,9.07-4.937h0.114v4.077h9.753V30.303c0-3.274,1.607-6.37,5.281-6.37c5.336,0,4.878,4.132,4.878,8.205v14.41
			h9.759V27.433C75.889,23.128,75.086,15.894,65.155,15.894z M55.691,16.907c-0.003,3.111-0.008,3.925-0.008,3.925
			S55.691,20.824,55.691,16.907z M77.967,3.891v9.765h9.766V3.891H77.967z"/>
		<path class="st2" d="M117.854,28.579h12.114c-0.174-3.327-2.527-6.083-5.801-6.083C120.725,22.496,118.429,24.964,117.854,28.579z
			 M139.727,31.758v2.183l-0.003,0.091h-21.87c0.172,4.08,2.527,6.777,6.659,6.777c2.353,0,4.649-1.091,5.567-3.275h9.129
			c-1.778,6.889-8.152,9.873-14.811,9.873c-6.784,0-12.052-2.86-14.603-8v7.14h-9.761v-14.41c0-4.075,0.458-8.205-4.881-8.205
			c-3.31,0-4.943,2.513-5.234,5.403v-8.86c1.875-2.834,5.718-4.582,9.14-4.582c8.006,0,10.081,4.701,10.58,8.784
			c2.598-5.358,8.17-8.784,14.527-8.784C134.03,15.894,139.34,22.752,139.727,31.758z"/>
	</g>
	<path class="st1" d="M55.041,62.467c0.343-0.127,0.616-0.345,0.824-0.649c0.205-0.304,0.307-0.666,0.307-1.083
		c0-0.25-0.042-0.489-0.125-0.718c-0.083-0.231-0.216-0.434-0.393-0.611c-0.177-0.177-0.4-0.317-0.668-0.426
		c-0.27-0.107-0.588-0.161-0.954-0.161h-2.603v6.172h1.134v-2.332h1.365l1.027,2.332h1.217L55.041,62.467z M54.788,61.406
		c-0.174,0.156-0.419,0.234-0.738,0.234h-1.498v-1.836h1.479c0.156,0,0.299,0.023,0.427,0.073c0.127,0.049,0.234,0.117,0.322,0.204
		c0.086,0.086,0.153,0.186,0.2,0.299c0.047,0.112,0.07,0.229,0.07,0.35C55.051,61.025,54.963,61.25,54.788,61.406z M26.95,64.92
		c0.302,0.122,0.653,0.183,1.053,0.183c0.4,0,0.751-0.061,1.053-0.183c0.302-0.121,0.554-0.291,0.757-0.508
		c0.203-0.217,0.356-0.478,0.458-0.784c0.101-0.304,0.151-0.64,0.151-1.005v-3.804h-1.121v3.787c0,0.441-0.107,0.798-0.315,1.07
		c-0.208,0.273-0.536,0.41-0.983,0.41c-0.447,0-0.775-0.136-0.983-0.41c-0.211-0.272-0.315-0.629-0.315-1.07v-3.787h-1.123v3.804
		c0,0.365,0.052,0.701,0.153,1.005c0.101,0.306,0.255,0.567,0.458,0.784C26.396,64.629,26.649,64.799,26.95,64.92z M36.628,64.99
		v-6.172h-1.105v4.179l-2.639-4.179h-1.191v6.172h1.105v-4.238l2.67,4.238H36.628z M39.213,58.818h-1.141v6.172h1.141V58.818z
		 M43.215,64.99l2.028-6.172h-1.131l-1.487,4.709l-1.498-4.709h-1.194l2.046,6.172H43.215z M50.36,63.972h-3.274v-1.689h2.881
		v-1.018h-2.881v-1.428h3.274v-1.019h-4.394v6.172h4.394V63.972z M73.336,57.365l-0.489-0.791l-1.602,1.201l0.349,0.564
		L73.336,57.365z M63.806,58.818h-1.141v6.172h1.141V58.818z M87.764,59.838v-1.019h-4.397v6.172h4.397v-1.018h-3.274v-1.689h2.881
		v-1.018h-2.881v-1.428H87.764z M74.527,63.972h-3.271v-1.689h2.879v-1.018h-2.879v-1.428h3.271v-1.019h-4.394v6.172h4.394V63.972z
		 M82.15,60.613c-0.052-0.209-0.127-0.41-0.221-0.601c-0.096-0.193-0.224-0.369-0.38-0.531c-0.203-0.216-0.455-0.38-0.754-0.491
		c-0.299-0.114-0.624-0.172-0.978-0.172h-2.403v6.172h2.403c0.354,0,0.679-0.057,0.978-0.17c0.299-0.113,0.551-0.277,0.754-0.491
		c0.156-0.163,0.283-0.341,0.38-0.534c0.094-0.195,0.169-0.397,0.221-0.606c0.052-0.208,0.086-0.421,0.099-0.64
		c0.016-0.217,0.023-0.433,0.023-0.647c0-0.214-0.008-0.432-0.023-0.649C82.236,61.035,82.202,60.822,82.15,60.613z M81.123,62.347
		c-0.005,0.159-0.023,0.315-0.052,0.468c-0.029,0.153-0.073,0.299-0.13,0.438c-0.06,0.138-0.143,0.263-0.252,0.372
		c-0.107,0.104-0.231,0.189-0.38,0.252c-0.148,0.062-0.312,0.095-0.491,0.095h-1.279v-4.134h1.279c0.179,0,0.343,0.031,0.491,0.096
		c0.148,0.064,0.273,0.147,0.38,0.251c0.109,0.109,0.192,0.234,0.252,0.373c0.057,0.138,0.101,0.283,0.13,0.437
		c0.029,0.153,0.047,0.308,0.052,0.464c0.005,0.156,0.008,0.303,0.008,0.442C81.131,62.039,81.129,62.188,81.123,62.347z
		 M66.409,64.99h1.121v-5.126h1.828v-1.045h-4.777v1.045h1.828V64.99z M61.156,61.914c-0.153-0.148-0.335-0.267-0.541-0.358
		c-0.205-0.09-0.424-0.152-0.655-0.187c-0.205-0.029-0.429-0.055-0.676-0.078c-0.247-0.023-0.468-0.049-0.666-0.078
		c-0.185-0.029-0.335-0.097-0.453-0.204c-0.117-0.108-0.174-0.263-0.174-0.467c0-0.116,0.018-0.214,0.057-0.295
		c0.036-0.082,0.088-0.157,0.151-0.226c0.127-0.134,0.283-0.225,0.468-0.272c0.182-0.044,0.359-0.068,0.533-0.068
		c0.169,0,0.343,0.029,0.523,0.086c0.179,0.057,0.32,0.14,0.419,0.244c0.075,0.082,0.138,0.175,0.187,0.283
		c0.049,0.107,0.075,0.216,0.083,0.326h1.147c-0.005-0.261-0.065-0.502-0.177-0.723c-0.114-0.22-0.263-0.417-0.45-0.591
		c-0.208-0.198-0.465-0.348-0.77-0.45c-0.304-0.101-0.621-0.151-0.952-0.151c-0.367,0-0.71,0.057-1.027,0.174
		c-0.32,0.114-0.58,0.276-0.783,0.478c-0.164,0.161-0.294,0.346-0.393,0.549c-0.099,0.203-0.148,0.426-0.148,0.67
		c0,0.256,0.042,0.484,0.127,0.684c0.083,0.2,0.195,0.371,0.338,0.513c0.143,0.142,0.307,0.256,0.497,0.343
		c0.187,0.087,0.39,0.148,0.603,0.183c0.205,0.034,0.432,0.06,0.681,0.078c0.247,0.017,0.478,0.047,0.687,0.087
		c0.192,0.035,0.361,0.108,0.51,0.221c0.148,0.114,0.221,0.283,0.221,0.51c0,0.151-0.023,0.269-0.07,0.352
		c-0.047,0.085-0.104,0.164-0.174,0.239c-0.114,0.122-0.268,0.208-0.46,0.257c-0.192,0.05-0.395,0.074-0.608,0.074
		c-0.182,0-0.364-0.022-0.554-0.066c-0.187-0.043-0.349-0.131-0.484-0.265c-0.091-0.092-0.169-0.204-0.229-0.334
		c-0.062-0.131-0.091-0.272-0.091-0.423h-1.149c0,0.295,0.06,0.567,0.182,0.814c0.122,0.246,0.276,0.454,0.46,0.621
		c0.257,0.233,0.546,0.396,0.866,0.493c0.322,0.095,0.65,0.143,0.98,0.143c0.382,0,0.744-0.051,1.084-0.152
		c0.338-0.101,0.627-0.272,0.866-0.51c0.151-0.151,0.273-0.33,0.369-0.539c0.096-0.208,0.143-0.458,0.143-0.748
		c0-0.261-0.044-0.497-0.135-0.706C61.432,62.24,61.31,62.062,61.156,61.914z M30.696,73.969l-3.327-5.273h-1.506v7.788h1.395
		v-5.349l3.372,5.349h1.46v-7.788h-1.395V73.969z M63.801,67.746l0.437,0.623l1.581-0.918l1.577,0.918l0.445-0.623l-2.022-1.514
		L63.801,67.746z M65.02,68.911l-2.66,7.572h1.428l0.506-1.494h3.097l0.506,1.494h1.482l-2.659-7.572H65.02z M64.733,73.703
		l1.109-3.283l1.109,3.283H64.733z M75.771,76.483h5.546v-1.284h-4.129v-2.132h3.635v-1.284h-3.635v-1.801h4.129v-1.286h-5.546
		V76.483z M68.72,70.014h2.306v6.469h1.417v-6.469h2.306v-1.318h-6.03V70.014z M84.129,68.695h-1.417v7.788h5.03v-1.339h-3.613
		V68.695z M49.471,71.411c0.034-0.202,0.087-0.393,0.16-0.576c0.073-0.182,0.175-0.343,0.308-0.481
		c0.153-0.169,0.334-0.296,0.543-0.385c0.208-0.087,0.426-0.131,0.653-0.131c0.242,0,0.467,0.04,0.676,0.121
		c0.208,0.081,0.374,0.201,0.499,0.361c0.103,0.125,0.183,0.252,0.242,0.38c0.059,0.129,0.095,0.277,0.111,0.445h1.45
		c-0.038-0.307-0.114-0.607-0.231-0.9c-0.117-0.294-0.289-0.556-0.516-0.791c-0.293-0.302-0.633-0.525-1.021-0.676
		c-0.389-0.151-0.792-0.226-1.209-0.226c-0.417,0-0.814,0.073-1.191,0.216c-0.377,0.142-0.716,0.364-1.017,0.663
		c-0.212,0.213-0.382,0.437-0.51,0.671c-0.129,0.234-0.226,0.484-0.291,0.746c-0.066,0.264-0.111,0.542-0.133,0.835
		c-0.022,0.294-0.032,0.598-0.032,0.913c0,0.322,0.01,0.627,0.032,0.917c0.022,0.29,0.066,0.566,0.133,0.828
		c0.065,0.265,0.163,0.513,0.291,0.748c0.128,0.235,0.298,0.458,0.51,0.67c0.3,0.302,0.64,0.52,1.017,0.66
		c0.377,0.138,0.774,0.208,1.191,0.208c0.417,0,0.82-0.079,1.209-0.237c0.387-0.157,0.728-0.386,1.021-0.686
		c0.228-0.234,0.399-0.499,0.516-0.796c0.117-0.296,0.194-0.598,0.231-0.906h-1.45c-0.03,0.318-0.147,0.602-0.352,0.849
		c-0.125,0.161-0.291,0.282-0.499,0.365c-0.209,0.085-0.434,0.126-0.676,0.126c-0.226,0-0.445-0.044-0.653-0.133
		c-0.209-0.087-0.39-0.216-0.543-0.384c-0.133-0.139-0.235-0.3-0.308-0.482s-0.126-0.374-0.16-0.575
		c-0.032-0.202-0.052-0.404-0.06-0.608c-0.008-0.205-0.01-0.395-0.01-0.571c0-0.175,0.003-0.365,0.01-0.569
		C49.419,71.816,49.438,71.613,49.471,71.411z M59.987,71.738h-3.196v-3.042h-1.417v7.788h1.417V73.09h3.196v3.393h1.417v-7.788
		h-1.417V71.738z M45.369,73.475c0,0.556-0.131,1.006-0.395,1.35c-0.263,0.344-0.677,0.517-1.24,0.517
		c-0.564,0-0.978-0.173-1.242-0.517c-0.264-0.343-0.395-0.793-0.395-1.35v-4.779h-1.417v4.8c0,0.462,0.064,0.884,0.193,1.269
		c0.129,0.385,0.32,0.714,0.577,0.988c0.256,0.276,0.575,0.489,0.955,0.642c0.38,0.154,0.823,0.232,1.329,0.232
		c0.504,0,0.948-0.078,1.329-0.232c0.381-0.153,0.699-0.367,0.956-0.642c0.256-0.274,0.449-0.603,0.576-0.988
		c0.129-0.385,0.193-0.807,0.193-1.269v-4.8h-1.417V73.475z M33.958,76.483h5.546v-1.284h-4.129v-2.132h3.635v-1.284h-3.635v-1.801
		h4.129v-1.286h-5.546V76.483z"/>
</g>
</svg>
