<?xml version="1.0" encoding="utf-8"?>
<!-- Generator: Adobe Illustrator 23.0.3, SVG Export Plug-In . SVG Version: 6.00 Build 0)  -->
<svg version="1.1" id="Calque_1" xmlns="http://www.w3.org/2000/svg" xmlns:xlink="http://www.w3.org/1999/xlink" x="0px" y="0px"
	 viewBox="0 0 1023.5 837.8" style="enable-background:new 0 0 1023.5 837.8;" xml:space="preserve">
<style type="text/css">
	.st0{fill:#353449;}
	.st1{fill:#646481;}
</style>
<title>test</title>
<g>
	<path class="st0" d="M800.4,343.4c0-75.2-43.7-140.4-107.1-171.5C662.2,108.5,597,64.8,521.7,64.8s-140.4,43.7-171.5,107.1
		c-63.4,31.1-107.1,96.3-107.1,171.5s43.7,140.4,107.1,171.5C381.3,578.3,446.5,622,521.7,622s140.4-43.7,171.5-107.1
		C756.7,483.8,800.4,418.6,800.4,343.4z M521.7,96.1c50.3,0,95.3,23.4,124.6,59.9c-11.9-2.3-24.3-3.6-36.9-3.6
		c-31.6,0-61.4,7.7-87.7,21.3c-26.3-13.6-56.1-21.3-87.7-21.3c-12.6,0-25,1.2-36.9,3.6C426.5,119.5,471.4,96.1,521.7,96.1z
		 M681.4,255.7c0,19.9-3.7,38.9-10.3,56.4c-17.6-22-39.9-40.1-65.5-52.6C593.1,234,575,211.6,553,194.1
		c17.6-6.7,36.6-10.3,56.4-10.3c21.3,0,41.6,4.2,60.2,11.8C677.2,214.1,681.4,234.4,681.4,255.7z M681.4,431.1
		c0,21.3-4.2,41.6-11.8,60.2c-18.6,7.6-38.9,11.8-60.2,11.8c-19.9,0-38.9-3.7-56.4-10.3c22-17.6,40.1-39.9,52.6-65.5
		c25.5-12.5,47.9-30.6,65.5-52.6C677.7,392.2,681.4,411.2,681.4,431.1z M362.1,431.1c0-19.9,3.7-38.9,10.3-56.4
		c17.6,22,39.9,40.1,65.5,52.6c12.5,25.5,30.6,47.9,52.6,65.5c-17.6,6.7-36.6,10.3-56.4,10.3c-21.3,0-41.6-4.2-60.2-11.8
		C366.3,472.7,362.1,452.3,362.1,431.1z M362.1,255.7c0-21.3,4.2-41.6,11.8-60.2c18.6-7.6,38.9-11.8,60.2-11.8
		c19.9,0,38.9,3.7,56.4,10.3c-22,17.6-40.1,39.9-52.6,65.5c-25.5,12.5-47.9,30.6-65.5,52.6C365.8,294.6,362.1,275.6,362.1,255.7z
		 M558.7,243.7c-11.9-2.3-24.3-3.6-36.9-3.6s-25,1.2-36.9,3.6c10.5-13,22.9-24.4,36.9-33.6C535.7,219.3,548.2,230.6,558.7,243.7z
		 M593.8,343.4c0,21.3-4.2,41.6-11.8,60.2c-18.6,7.6-38.9,11.8-60.2,11.8c-21.3,0-41.6-4.2-60.2-11.8c-7.6-18.6-11.8-38.9-11.8-60.2
		c0-21.3,4.2-41.6,11.8-60.2c18.6-7.6,38.9-11.8,60.2-11.8c21.3,0,41.6,4.2,60.2,11.8C589.5,301.8,593.8,322.1,593.8,343.4z
		 M422,306.5c-2.3,11.9-3.6,24.3-3.6,36.9s1.2,25,3.6,36.9c-13-10.5-24.4-22.9-33.6-36.9C397.6,329.4,409,317,422,306.5z
		 M484.8,443.1c11.9,2.3,24.3,3.6,36.9,3.6s25-1.2,36.9-3.6c-10.5,13-22.9,24.4-36.9,33.6C507.8,467.5,495.3,456.2,484.8,443.1z
		 M621.5,380.3c2.3-11.9,3.6-24.3,3.6-36.9s-1.2-25-3.6-36.9c13,10.5,24.4,22.9,33.6,36.9C645.9,357.4,634.5,369.8,621.5,380.3z
		 M274.4,343.4c0-50.3,23.4-95.3,59.9-124.6c-2.3,11.9-3.6,24.3-3.6,36.9c0,31.6,7.7,61.4,21.3,87.7c-13.6,26.3-21.3,56.1-21.3,87.7
		c0,12.6,1.2,25,3.6,36.9C297.9,438.7,274.4,393.7,274.4,343.4z M521.7,590.7c-50.3,0-95.3-23.4-124.6-59.9
		c11.9,2.3,24.3,3.6,36.9,3.6c31.6,0,61.4-7.7,87.7-21.3c26.3,13.6,56.1,21.3,87.7,21.3c12.6,0,25-1.2,36.9-3.6
		C617,567.3,572.1,590.7,521.7,590.7z M709.1,468c2.3-11.9,3.6-24.3,3.6-36.9c0-31.6-7.7-61.4-21.3-87.7
		c13.6-26.3,21.3-56.1,21.3-87.7c0-12.6-1.2-25-3.6-36.9c36.5,29.3,59.9,74.2,59.9,124.6S745.6,438.7,709.1,468z"/>
	<g>
		<path class="st1" d="M286.7,729.2c7,0,13.2,2,13.2,2c0.2-10.5-1.8-14.7-10.4-14.7c-7.7,0-15.2,2-18.7,3c-2,0.5-3.2-0.8-3.7-2.7
			l-1.3-6.2c-0.5-2.2,0.7-3.3,2.2-3.8c1.2-0.5,10.7-3.8,23-3.8c21.4,0,23.4,13,23.4,29.7v35.6c0,1.7-1.5,3.2-3.2,3.2h-4.7
			c-1.5,0-2.2-0.7-2.8-2.3l-1.7-4.5c-3.7,3.5-10.2,8.5-20.5,8.5c-12.5,0-21.5-8.5-21.5-22.4C259.9,738.5,269.6,729.2,286.7,729.2z
			 M284.7,761.2c6.7,0,13-5,15-8.3v-10.7c-1-0.7-5.7-2.7-11.7-2.7c-8,0-13.5,4.2-13.5,11C274.5,756.5,278.5,761.2,284.7,761.2z"/>
		<path class="st1" d="M365.5,702.9c10.2,0,18,4.2,24.2,11.9c1.2,1.5,0.8,3.5-0.7,4.7l-5.5,5c-2,1.8-3.2,0.5-4.5-0.7
			c-3-3.3-7.8-6.3-13.4-6.3c-10.9,0-19.4,9.2-19.4,20.5c0,11.5,8.3,20.7,19.2,20.7c8.5,0,12-4.3,15.5-7.7c1.5-1.5,3-1.5,4.5-0.3
			l4.5,3.7c1.7,1.3,2.3,3,1.2,4.7c-5.3,8.5-14.4,14-25.9,14c-18.7,0-34.9-14.9-34.9-34.9C330.4,718.5,346.9,702.9,365.5,702.9z"/>
		<path class="st1" d="M407.9,707.8c0-1.7,1.5-3.2,3.2-3.2h4.7c1.5,0,2.3,0.8,2.8,2l1.8,5.7c1.5-1.5,9.2-9.4,22-9.4
			c9.7,0,16.7,3.8,21.5,10.7c1.8-1.8,11.5-10.7,24.2-10.7c20.4,0,27.6,14.4,27.6,31.7v33.6c0,1.7-1.3,3.2-3.2,3.2h-9.4
			c-1.8,0-3.2-1.5-3.2-3.2V734c0-10.5-4.8-16.5-13.9-16.5c-10.2,0-16,7.2-17.2,8.2c0.3,1.5,0.5,4.7,0.5,8v34.6
			c0,1.7-1.5,3.2-3.2,3.2h-8.8c-1.8,0-3.2-1.5-3.2-3.2V734c0-10.7-4.8-16.5-14.2-16.5c-10,0-15.7,7.8-16.5,10v40.7
			c0,1.7-1.5,3.2-3.2,3.2H411c-1.7,0-3.2-1.5-3.2-3.2V707.8z"/>
		<path class="st1" d="M565.2,702.9c17.4,0,30.7,13,30.7,30.9c0,1.2-0.2,3.3-0.3,4.5c-0.2,1.7-1.5,2.8-3,2.8h-45.4
			c0.5,9,8.3,17.9,19.2,17.9c6,0,11.5-2.7,14.9-4.8c2-1.2,3.2-1.8,4.5-0.2l4.7,6.3c1.2,1.3,1.7,2.7-0.3,4.3
			c-4.8,4.2-13.5,8.3-24.7,8.3c-20.2,0-33.6-15.9-33.6-35.1C531.8,719.1,545.1,702.9,565.2,702.9z M580.4,730.7
			c-0.5-8-7.2-14.9-15.4-14.9c-9,0-16,6.5-17,14.9H580.4z"/>
		<path class="st1" d="M678.7,702.9c10.2,0,18,4.2,24.2,11.9c1.2,1.5,0.8,3.5-0.7,4.7l-5.5,5c-2,1.8-3.2,0.5-4.5-0.7
			c-3-3.3-7.8-6.3-13.4-6.3c-10.9,0-19.4,9.2-19.4,20.5c0,11.5,8.3,20.7,19.2,20.7c8.5,0,12-4.3,15.5-7.7c1.5-1.5,3-1.5,4.5-0.3
			l4.5,3.7c1.7,1.3,2.3,3,1.2,4.7c-5.3,8.5-14.4,14-25.9,14c-18.7,0-34.9-14.9-34.9-34.9C643.6,718.5,660.2,702.9,678.7,702.9z"/>
		<path class="st1" d="M749.8,702.9c18.7,0,33.7,16,33.7,34.9c0,19.2-15,35.2-33.7,35.2c-18.7,0-33.7-16-33.7-35.2
			C716.1,719,731.1,702.9,749.8,702.9z M749.8,758.7c10.5,0,18.9-9.4,18.9-20.9c0-11.2-8.3-20.4-18.9-20.4
			c-10.5,0-18.9,9.2-18.9,20.4C731,749.4,739.3,758.7,749.8,758.7z"/>
	</g>
</g>
</svg>
