<?xml version="1.0" encoding="utf-8"?>
<!-- Generator: Adobe Illustrator 23.0.3, SVG Export Plug-In . SVG Version: 6.00 Build 0)  -->
<svg version="1.1" id="Calque_1" xmlns="http://www.w3.org/2000/svg" xmlns:xlink="http://www.w3.org/1999/xlink" x="0px" y="0px"
	 viewBox="0 0 1091.8 828.6" style="enable-background:new 0 0 1091.8 828.6;" xml:space="preserve">
<style type="text/css">
	.st0{fill:#353449;}
</style>
<title>business deal</title>
<g>
	<path class="st0" d="M817,308.1H557.7h-14.7h-14.7v166.7v29.5h29.5H817h29.5v-29.5V308.1h-14.7H817z M782.1,337.6l-94.8,61.7
		l-94.7-61.7H782.1z M557.7,474.9V350l121.6,79.2c2.4,1.6,5.2,2.4,8,2.4s5.6-0.8,8-2.4L817,350v124.8H557.7z"/>
	<path class="st0" d="M104.9,311l-73,188.8h45.9l11.9-32h80.9l11.6,32H228L155.3,311H104.9z M100.7,432.4l29.4-81.2l29.4,81.2H100.7
		z"/>
	<path class="st0" d="M387.3,343.5c19.5,0,36.5,12.2,44.4,27.5l34.5-17c-13.3-23.5-37.4-46.1-79-46.1c-56.6,0-100.5,39.6-100.5,97.6
		c0,58,43.9,97.6,100.5,97.6c41.6,0,65.4-22.9,79-46.4l-34.5-16.7c-7.9,15.6-24.9,27.5-44.4,27.5c-34.2,0-59.2-26.3-59.2-62
		C328.1,369.9,353,343.5,387.3,343.5z"/>
	<polygon class="st0" points="1059.9,346.4 1059.9,311 926.3,311 926.3,499.8 1059.9,499.8 1059.9,464.4 966.5,464.4 966.5,421.7 
		1057.9,421.7 1057.9,386.3 966.5,386.3 966.5,346.4 	"/>
</g>
</svg>
