<?xml version="1.0" encoding="utf-8"?>
<!-- Generator: Adobe Illustrator 23.0.3, SVG Export Plug-In . SVG Version: 6.00 Build 0)  -->
<svg version="1.1" id="Calque_1" xmlns="http://www.w3.org/2000/svg" xmlns:xlink="http://www.w3.org/1999/xlink" x="0px" y="0px"
	 viewBox="0 0 873.5 801.4" style="enable-background:new 0 0 873.5 801.4;" xml:space="preserve">
<style type="text/css">
	.st0{fill:#353449;}
</style>
<title>businessman</title>
<g>
	<path class="st0" d="M266.1,413.9l-32.1-118.6c-0.7-2.7-2.9-4.8-5.6-5.6l-118.6-32.1c-2.4-0.6-4.9-0.1-6.9,1.4
		c-0.1,0.1-0.2,0.2-0.4,0.3l-0.4-0.4l-75.4,75.4l0,0c-0.2,0.2-0.3,0.3-0.5,0.5c-1.7,2.1-2.3,4.9-1.5,7.5l35.8,115
		c0.7,2.2,2.2,3.9,4.3,4.9l145.4,66.2c1.1,0.5,2.2,0.7,3.3,0.7c1.9,0,3.7-0.7,5.2-1.9c0.9-0.8,1.6-1.8,2.1-2.9l0,0l43.8-103.1
		c0-0.1,0.1-0.1,0.1-0.2C266.2,418.8,266.7,416.3,266.1,413.9z M214.9,497.2L194,423.9h52L214.9,497.2z M248,408h-58.5l-13.9-48.8
		l46.4-47.1L248,408z M115.6,408v-49.6l44.9,5.7L173,408H115.6z M210.4,301.3l-46.6,47.2l-48.2-6.1v-66.8L210.4,301.3z M99.7,340.4
		L49.3,334l50.4-50.4V340.4z M43.5,349.2l56.2,7.2V416c0,0.6,0.1,1.1,0.2,1.7l-26.8,26.8L43.5,349.2z M85.8,454.1l30.2-30.2h61.4
		l23.6,82.7L85.8,454.1z"/>
	<g>
		<path class="st0" d="M418.9,435.2l-5.2-14.3h-36.2l-5.3,14.3h-20.5l32.6-84.3h22.5l32.5,84.3H418.9z M395.7,368.8l-13.1,36.3h26.3
			L395.7,368.8z"/>
		<path class="st0" d="M489.4,393.1c0-25.9,19.6-43.6,44.9-43.6c18.6,0,29.3,10.1,35.3,20.6l-15.4,7.6c-3.5-6.8-11.1-12.3-19.8-12.3
			c-15.3,0-26.4,11.8-26.4,27.7c0,15.9,11.1,27.7,26.4,27.7c8.7,0,16.3-5.3,19.8-12.3l15.4,7.5c-6.1,10.5-16.7,20.7-35.3,20.7
			C509,436.7,489.4,419,489.4,393.1z"/>
		<path class="st0" d="M704.2,435.2v-59l-23.8,59h-7.8l-23.8-59v59h-17.9v-84.3H656l20.5,50.9l20.5-50.9h25.3v84.3H704.2z"/>
		<path class="st0" d="M789.5,435.2v-84.3h59.7v15.8h-41.7v17.8h40.8v15.8h-40.8v19.1h41.7v15.8H789.5z"/>
	</g>
</g>
</svg>
