<?xml version="1.0" encoding="utf-8"?>
<!-- Generator: Adobe Illustrator 23.0.3, SVG Export Plug-In . SVG Version: 6.00 Build 0)  -->
<svg version="1.1" id="Calque_1" xmlns="http://www.w3.org/2000/svg" xmlns:xlink="http://www.w3.org/1999/xlink" x="0px" y="0px"
	 viewBox="0 0 1034.9 831.6" style="enable-background:new 0 0 1034.9 831.6;" xml:space="preserve">
<style type="text/css">
	.st0{fill:#272525;}
	.st1{fill:#646481;}
</style>
<title>envelope</title>
<g>
	<g>
		<path class="st0" d="M75.9,497.6H40.1c-2.1,0-3.9-1.7-3.9-3.9V349.4c0-2.1,1.7-3.9,3.9-3.9h35.4c2.1,0,3.9,1.7,3.9,3.9v144.8
			C79.3,496,77.8,497.6,75.9,497.6z"/>
		<path class="st0" d="M312.7,556.2h-35.8c-2.1,0-3.9-1.7-3.9-3.9V290.7c0-2.1,1.7-3.9,3.9-3.9h35.4c2.1,0,3.9,1.7,3.9,3.9v262
			C316.1,554.7,314.6,556.2,312.7,556.2z"/>
		<path class="st0" d="M154.8,556.2H119c-2.1,0-3.9-1.7-3.9-3.9V290.7c0-2.1,1.7-3.9,3.9-3.9h35.4c2.1,0,3.9,1.7,3.9,3.9v262
			C158.2,554.7,156.7,556.2,154.8,556.2z"/>
		<path class="st0" d="M391.6,497.6h-35.8c-2.1,0-3.9-1.7-3.9-3.9V349.4c0-2.1,1.7-3.9,3.9-3.9h35.4c2.1,0,3.9,1.7,3.9,3.9v144.8
			C395.1,496,393.5,497.6,391.6,497.6z"/>
		<path class="st0" d="M233.7,502.4h-35.8c-2.1,0-3.9-1.7-3.9-3.9v-141c0-2.1,1.7-3.9,3.9-3.9h35.4c2.1,0,3.9,1.7,3.9,3.9v141.4
			C237.2,500.8,235.6,502.4,233.7,502.4z"/>
	</g>
	<g>
		<path class="st1" d="M537,459.4l36.6-78.7c0.4-0.7,1.2-1.3,2-1.3h1.2c0.8,0,1.6,0.6,2,1.3l36.6,78.7c0.7,1.5-0.2,3-2,3h-13
			c-2.1,0-3-0.7-4.1-2.9l-4.2-9.2h-31.8l-4.2,9.4c-0.6,1.4-1.9,2.8-4.2,2.8H539C537.3,462.5,536.3,460.9,537,459.4z M585.1,434.4
			l-8.9-19.3h-0.1l-8.8,19.3H585.1z"/>
		<path class="st1" d="M707.3,379.5c11.7,0,20.3,3.6,28.3,10.9c1.1,0.9,1.1,2.3,0.1,3.3l-9.1,9.5c-0.8,0.8-2.1,0.8-2.9,0
			c-4.3-3.9-10.1-6-15.8-6c-13.2,0-22.9,11-22.9,24.1c0,13,9.8,23.7,23,23.7c5.5,0,11.5-2,15.7-5.6c0.8-0.7,2.3-0.7,3,0.1l9.1,9.7
			c0.8,0.8,0.7,2.3-0.1,3.2c-8,7.7-18,11.3-28.4,11.3c-23.4,0-42.2-18.6-42.2-42S683.9,379.5,707.3,379.5z"/>
		<path class="st1" d="M804.5,381.3c0.1-1.1,1.2-1.9,2.1-1.9h1.9c0.6,0,1.6,0.5,2,1.2l27.1,50.5h0.2l27.1-50.5
			c0.4-0.7,1.4-1.2,2-1.2h1.9c0.9,0,2,0.8,2.1,1.9l13.2,78.6c0.2,1.5-0.8,2.6-2.2,2.6h-13.8c-1.1,0-2.1-0.9-2.2-1.9l-5.3-36.1h-0.2
			l-19.6,37.9c-0.4,0.7-1.4,1.3-2,1.3h-2.1c-0.7,0-1.6-0.6-2-1.3L815,424.5h-0.2l-5.1,36.1c-0.1,0.9-1.1,1.9-2.2,1.9h-13.8
			c-1.4,0-2.5-1.1-2.2-2.6L804.5,381.3z"/>
		<path class="st1" d="M945.9,382.8c0-1.2,0.9-2.2,2.2-2.2h48.4c1.3,0,2.2,1.1,2.2,2.2v12.7c0,1.2-0.9,2.2-2.2,2.2h-32.4v14.5h26.7
			c1.2,0,2.2,1.1,2.2,2.2v12.7c0,1.3-1.1,2.2-2.2,2.2h-26.7v15.8h32.4c1.3,0,2.2,1.1,2.2,2.2v12.7c0,1.2-0.9,2.2-2.2,2.2h-48.4
			c-1.3,0-2.2-1.1-2.2-2.2V382.8z"/>
	</g>
</g>
</svg>
