<?xml version="1.0" encoding="utf-8"?>
<!-- Generator: Adobe Illustrator 23.0.3, SVG Export Plug-In . SVG Version: 6.00 Build 0)  -->
<svg version="1.1" id="Calque_1" xmlns="http://www.w3.org/2000/svg" xmlns:xlink="http://www.w3.org/1999/xlink" x="0px" y="0px"
	 viewBox="0 0 1084.2 758.6" style="enable-background:new 0 0 1084.2 758.6;" xml:space="preserve">
<style type="text/css">
	.st0{fill:#353449;}
</style>
<title>interview</title>
<g>
	<path class="st0" d="M165.7,326.4c-19.9,0-36.3,15.4-37.9,34.8c-0.1,0.5-0.2,1.1-0.2,1.6v51.9c0,6.2,5.1,11.3,11.3,11.3
		c6.2,0,11.3-5.1,11.3-11.3v-9.2h31v9.2c0,6.2,5.1,11.3,11.3,11.3s11.3-5.1,11.3-11.3v-51.9c0-0.6-0.1-1.1-0.2-1.6
		C202,341.8,185.7,326.4,165.7,326.4z M150.2,383v-18.5c0-8.6,7-15.5,15.5-15.5c8.6,0,15.5,7,15.5,15.5V383H150.2z"/>
	<path class="st0" d="M165.7,242.5C92,242.5,32,302.5,32,376.3S92,510,165.7,510s133.8-60,133.8-133.8S239.5,242.5,165.7,242.5z
		 M165.7,487.5c-61.3,0-111.2-49.9-111.2-111.2s49.9-111.2,111.2-111.2S276.9,315,276.9,376.3S227.1,487.5,165.7,487.5z"/>
	<path class="st0" d="M442.7,326.4c-19.9,0-36.3,15.4-37.9,34.8c-0.1,0.5-0.2,1.1-0.2,1.6v51.9c0,6.2,5.1,11.3,11.3,11.3
		s11.3-5.1,11.3-11.3v-9.2h31v9.2c0,6.2,5.1,11.3,11.3,11.3s11.3-5.1,11.3-11.3v-51.9c0-0.6-0.1-1.1-0.2-1.6
		C479,341.8,462.6,326.4,442.7,326.4z M427.2,383v-18.5c0-8.6,7-15.5,15.5-15.5c8.6,0,15.5,7,15.5,15.5V383H427.2z"/>
	<path class="st0" d="M674.6,326.4c-10.4,0-19.9,4.2-26.8,11.1c-6.9-6.8-16.4-11.1-26.8-11.1c-19.9,0-36.3,15.4-37.9,34.8
		c-0.1,0.5-0.2,1.1-0.2,1.6v51.9c0,6.2,5.1,11.3,11.3,11.3s11.3-5.1,11.3-11.3v-50.3c0-8.6,7-15.5,15.5-15.5s15.5,7,15.5,15.5v27.7
		c0,6.2,5.1,11.3,11.3,11.3s11.3-5.1,11.3-11.3v-27.7c0-8.6,7-15.5,15.5-15.5s15.5,7,15.5,15.5v50.3c0,6.2,5.1,11.3,11.3,11.3
		s11.3-5.1,11.3-11.3v-51.9c0-0.6-0.1-1.1-0.2-1.6C710.8,341.8,694.5,326.4,674.6,326.4z"/>
	<path class="st0" d="M561.7,392.5c-5.4-3.1-12.3-1.3-15.4,4.1c-2.8,4.8-7.9,7.8-13.4,7.8c-8.6,0-15.5-7-15.5-15.5v-24.2
		c0,0,0,0,0,0c0-8.6,7-15.5,15.5-15.5c5.2,0,10,2.6,12.9,6.8c2.2,3.2,5.7,5,9.4,5c2.2,0,4.4-0.6,6.3-1.9c5.2-3.5,6.5-10.5,3-15.7
		c-7.1-10.5-18.9-16.8-31.6-16.8c-19.8,0-36.1,15.1-37.9,34.4c-0.1,0.6-0.2,1.2-0.2,1.9v29.3c0,1.3,0.3,2.6,0.7,3.8
		c3.4,17.6,18.8,30.9,37.4,30.9c13.6,0,26.2-7.3,33-19C568.9,402.5,567.1,395.6,561.7,392.5z"/>
	<path class="st0" d="M945.4,392c-5.4-3.1-12.3-1.3-15.4,4.1c-2.8,4.8-7.9,7.8-13.4,7.8c-8.6,0-15.5-7-15.5-15.5v-24.2c0,0,0,0,0,0
		c0-8.6,7-15.5,15.5-15.5c5.2,0,10,2.6,12.9,6.8c2.2,3.2,5.7,5,9.4,5c2.2,0,4.4-0.6,6.3-1.9c5.2-3.5,6.5-10.5,3-15.7
		c-7.1-10.5-18.9-16.8-31.6-16.8c-19.8,0-36.1,15.1-37.9,34.4c-0.1,0.6-0.2,1.2-0.2,1.9v29.3c0,1.3,0.3,2.6,0.7,3.8
		c3.4,17.6,18.8,30.9,37.4,30.9c13.6,0,26.2-7.3,33-19C952.7,402,950.8,395.1,945.4,392z"/>
	<path class="st0" d="M1039.9,361.4c0-0.1,0-0.1,0-0.2c0-0.4,0-0.8-0.1-1.1c-0.7-6.1-2.8-12-6.3-17.2c-7.1-10.5-18.9-16.8-31.6-16.8
		c-19.8,0-36.1,15.2-37.9,34.5c-0.1,0.6-0.2,1.2-0.2,1.8v29.3c0,1.3,0.3,2.6,0.7,3.8c3.4,17.6,18.8,30.9,37.4,30.9
		c0.4,0,0.8-0.1,1.1-0.1c12.2-0.4,23.6-6.6,30.4-16.7c2.9-4.2,4.8-9,5.8-13.9c0.5-1.2,0.7-2.5,0.7-3.9v-29.3
		C1040,362,1039.9,361.7,1039.9,361.4z M1001.9,403.8c-0.2,0-0.3,0-0.5,0.1c-8.3-0.3-15-7.1-15-15.5v-24.2c0-8.6,7-15.5,15.5-15.5
		c5.2,0,10,2.6,12.9,6.8c1.7,2.6,2.6,5.6,2.6,8.7v24.1c0,3.1-0.9,6.1-2.6,8.7C1011.9,401.2,1007.1,403.8,1001.9,403.8z"/>
	<path class="st0" d="M798.8,342.9c-7.1-10.5-18.9-16.8-31.6-16.8c-20.1,0-36.6,15.7-38,35.5c0,0.4-0.1,0.9-0.1,1.3v29.3
		c0,1.6,0.4,3.2,1,4.6c3.9,16.9,19,29.6,37.1,29.6c0,0,0,0,0,0c13.5,0,26.1-7.3,32.9-19c3.1-5.4,1.3-12.3-4.1-15.4
		c-5.4-3.1-12.3-1.3-15.4,4.1c-2.8,4.8-7.9,7.8-13.4,7.8c0,0,0,0,0,0c-8.5,0-15.5-7-15.5-15.5v-4H794c6.2,0,11.3-5.1,11.3-11.3v-13
		c0-1.7-0.4-3.2-1-4.6C803.2,351,801.4,346.7,798.8,342.9z M782.5,361.8h-30.6c1.2-7.4,7.6-13.1,15.3-13.1c5.2,0,10,2.6,12.9,6.8
		C781.4,357.4,782.2,359.5,782.5,361.8z"/>
</g>
</svg>
