<?xml version="1.0" encoding="utf-8"?>
<!-- Generator: Adobe Illustrator 23.0.3, SVG Export Plug-In . SVG Version: 6.00 Build 0)  -->
<svg version="1.1" id="Calque_1" xmlns="http://www.w3.org/2000/svg" xmlns:xlink="http://www.w3.org/1999/xlink" x="0px" y="0px"
	 viewBox="0 0 1007 858" style="enable-background:new 0 0 1007 858;" xml:space="preserve">
<style type="text/css">
	.st0{fill:#646481;}
	.st1{fill:#353449;}
</style>
<title>reading list</title>
<g>
	<g>
		<path class="st0" d="M537.9,435.3c9.8,0,18.4,2.8,18.4,2.8c0.2-14.6-2.6-20.4-14.4-20.4c-10.7,0-21.1,2.8-26,4.2
			c-2.8,0.7-4.4-1.2-5.1-3.7l-1.9-8.6c-0.7-3,0.9-4.6,3-5.3c1.6-0.7,14.9-5.3,32.1-5.3c29.7,0,32.5,18.1,32.5,41.4v49.5
			c0,2.3-2.1,4.4-4.4,4.4h-6.5c-2.1,0-3-0.9-3.9-3.3l-2.3-6.3c-5.1,4.9-14.2,11.9-28.6,11.9c-17.4,0-30-11.9-30-31.1
			C500.7,448.3,514.2,435.3,537.9,435.3z M535.1,479.9c9.3,0,18.1-7,20.9-11.6v-14.9c-1.4-0.9-7.9-3.7-16.3-3.7
			c-11.2,0-18.8,5.8-18.8,15.3C520.9,473.4,526.5,479.9,535.1,479.9z"/>
		<path class="st0" d="M647.6,398.8c14.2,0,25.1,5.8,33.7,16.5c1.6,2.1,1.2,4.9-0.9,6.5l-7.7,7c-2.8,2.6-4.4,0.7-6.3-0.9
			c-4.2-4.6-10.9-8.8-18.6-8.8c-15.1,0-27,12.8-27,28.6c0,16,11.6,28.8,26.7,28.8c11.9,0,16.7-6,21.6-10.7c2.1-2.1,4.2-2.1,6.3-0.5
			l6.3,5.1c2.3,1.9,3.3,4.2,1.6,6.5c-7.4,11.9-20,19.5-36,19.5c-26,0-48.6-20.7-48.6-48.6C598.8,420.4,621.8,398.8,647.6,398.8z"/>
		<path class="st0" d="M706.6,405.6c0-2.3,2.1-4.4,4.4-4.4h6.5c2.1,0,3.3,1.2,4,2.8l2.6,7.9c2.1-2.1,12.8-13,30.7-13
			c13.5,0,23.2,5.3,30,14.9c2.6-2.6,16-14.9,33.7-14.9c28.4,0,38.3,20,38.3,44.2v46.7c0,2.3-1.9,4.4-4.4,4.4h-13
			c-2.6,0-4.4-2.1-4.4-4.4V442c0-14.6-6.7-23-19.3-23c-14.2,0-22.3,10-23.9,11.4c0.5,2.1,0.7,6.5,0.7,11.2v48.1
			c0,2.3-2.1,4.4-4.4,4.4h-12.3c-2.6,0-4.4-2.1-4.4-4.4V442c0-14.9-6.7-23-19.8-23c-13.9,0-21.8,10.9-23,13.9v56.7
			c0,2.3-2.1,4.4-4.4,4.4h-13c-2.3,0-4.4-2.1-4.4-4.4V405.6z"/>
		<path class="st0" d="M925.5,398.8c24.2,0,42.8,18.1,42.8,43c0,1.6-0.2,4.6-0.5,6.3c-0.2,2.3-2.1,4-4.2,4h-63.2
			c0.7,12.5,11.6,24.9,26.7,24.9c8.4,0,16-3.7,20.7-6.7c2.8-1.6,4.4-2.6,6.3-0.2l6.5,8.8c1.6,1.9,2.3,3.7-0.5,6
			c-6.7,5.8-18.8,11.6-34.4,11.6c-28.1,0-46.7-22.1-46.7-48.8C879,421.4,897.6,398.8,925.5,398.8z M946.6,437.4
			c-0.7-11.2-10-20.7-21.4-20.7c-12.5,0-22.3,9.1-23.7,20.7H946.6z"/>
	</g>
	<path class="st1" d="M355.3,307.4H243.6l57-77.2c4.1-5.6,3-13.5-2.7-17.7c-5.6-4.1-13.5-3-17.7,2.7l-68.1,92.2h-3.8L164.1,263
		c-4.9-4.9-12.9-4.9-17.9,0c-4.9,4.9-4.9,12.9,0,17.9l26.5,26.5H70.7c-17.6,0-31.9,14.4-31.9,31.9v185.3c0,45.1,36.9,82.1,82.1,82.1
		h44.7l-15,9.9c-5.8,3.8-7.5,11.7-3.6,17.5c3.8,5.8,11.7,7.5,17.5,3.6l47.2-31h2.7l47.5,31.3c2.1,1.4,4.6,2.1,6.9,2.1
		c4.1,0,8.1-2,10.6-5.7c3.8-5.8,2.2-13.7-3.6-17.5l-15.4-10.2h44.8c45.1,0,82.1-36.9,82.1-82.1V339.3
		C387.2,321.7,372.9,307.4,355.3,307.4z M354.6,517.2c0,29.9-24.5,54.4-54.4,54.4H125.9c-29.9,0-54.4-24.5-54.4-54.4V367.1
		c0-13.6,11.1-24.7,24.7-24.7h233.7c13.6,0,24.7,11.1,24.7,24.7V517.2z"/>
</g>
</svg>
