<?xml version="1.0" encoding="utf-8"?>
<!-- Generator: Adobe Illustrator 23.0.3, SVG Export Plug-In . SVG Version: 6.00 Build 0)  -->
<svg version="1.1" id="Calque_1" xmlns="http://www.w3.org/2000/svg" xmlns:xlink="http://www.w3.org/1999/xlink" x="0px" y="0px"
	 viewBox="0 0 1059.1 789.4" style="enable-background:new 0 0 1059.1 789.4;" xml:space="preserve">
<style type="text/css">
	.st0{fill:#353449;}
</style>
<title>studying</title>
<g>
	<g>
		<path class="st0" d="M948.9,482.8c-2.5-1.5-5.7-0.6-7.2,1.9c-1.3,2.2-3.7,3.6-6.3,3.6c-4,0-7.2-3.2-7.2-7.2v-11.3c0,0,0,0,0,0
			c0-4,3.2-7.2,7.2-7.2c2.4,0,4.7,1.2,6,3.2c1,1.5,2.7,2.3,4.4,2.3c1,0,2-0.3,2.9-0.9c2.4-1.6,3-4.9,1.4-7.3
			c-3.3-4.9-8.8-7.8-14.7-7.8c-9.2,0-16.8,7.1-17.7,16.1c0,0.3-0.1,0.6-0.1,0.9v13.7c0,0.6,0.1,1.2,0.3,1.8
			c1.6,8.2,8.8,14.4,17.4,14.4c6.3,0,12.2-3.4,15.4-8.9C952.3,487.5,951.4,484.3,948.9,482.8z"/>
		<path class="st0" d="M993,468.5C992.9,468.5,992.9,468.5,993,468.5c0-0.3,0-0.4-0.1-0.6c-0.3-2.9-1.3-5.6-2.9-8
			c-3.3-4.9-8.8-7.8-14.7-7.8c-9.2,0-16.8,7.1-17.7,16.1c0,0.3-0.1,0.6-0.1,0.8v13.7c0,0.6,0.1,1.2,0.3,1.8
			c1.6,8.2,8.8,14.4,17.4,14.4c0.2,0,0.4,0,0.5-0.1c5.7-0.2,11-3.1,14.2-7.8c1.3-2,2.2-4.2,2.7-6.5c0.2-0.6,0.3-1.2,0.3-1.8V469
			C993,468.8,993,468.7,993,468.5z M975.2,488.3c-0.1,0-0.2,0-0.2,0c-3.9-0.1-7-3.3-7-7.2v-11.3c0-4,3.2-7.2,7.2-7.2
			c2.4,0,4.7,1.2,6,3.2c0.8,1.2,1.2,2.6,1.2,4v11.2c0,1.5-0.4,2.8-1.2,4C979.9,487.1,977.6,488.3,975.2,488.3z"/>
	</g>
	<g>
		<path class="st0" d="M501.6,467.3L501.6,467.3c-0.3,0.2-0.5,0.5-0.8,0.8L501.6,467.3z"/>
		<path class="st0" d="M697.7,475.5c-12.4,0-22.5-10.1-22.5-22.5V352.8c0-17-13.9-30.9-30.9-30.9c-14,0-25.9,9.4-29.6,22.2
			c2.8-0.8,5.7-1.3,8.7-1.3c17,0,30.9,13.9,30.9,30.9v100.2c0,12.4,10.1,22.5,22.5,22.5c5.8,0,11.1-2.2,15.1-5.8l0.2,0.2l23.3-23.4
			l-0.3-0.3C711,472.2,704.8,475.5,697.7,475.5z"/>
		<path class="st0" d="M568.6,408.1v-55.2c0-17-13.9-30.9-30.9-30.9c-14,0-25.9,9.4-29.6,22.2c2.8-0.8,5.7-1.3,8.7-1.3
			c17,0,30.9,13.9,30.9,30.9V429c0,12.4,10.1,22.5,22.5,22.5c4.7,0,9-1.4,12.6-3.9l0.2,0.1l1-1c1.5-1.2,2.9-2.5,4-4l17.1-17.1
			c-3.8,3-8.6,4.9-13.9,4.9C578.6,430.5,568.6,420.5,568.6,408.1z"/>
		<path class="st0" d="M461.8,453V349.6c0-1.1,0.2-2.2,0.3-3.2c1.1-13.1,5.6-25.3,12.6-35.6c-18.7,12.5-31.5,33-33.5,56.6
			c-0.2,1.1-0.3,2.1-0.3,3.3v103.4c0,12.4,10.1,22.5,22.5,22.5c5.7,0,10.9-2.1,14.9-5.7l0,0l0.3-0.3c0.5-0.5,1-1,1.5-1.5l19.5-19.5
			c-4,3.7-9.3,6-15.1,6C471.9,475.5,461.8,465.4,461.8,453z"/>
		<path class="st0" d="M422,448c0,0,0.1-0.1,0.1-0.1c-0.2,0.2-0.3,0.4-0.5,0.6C421.7,448.3,421.9,448.1,422,448z"/>
		<path class="st0" d="M362.2,477.1c-36.9,0-67.7-26.5-74.4-61.5c-0.9-2.4-1.4-4.9-1.4-7.6v-58.4c0-1.3,0.2-2.5,0.4-3.7
			c1.5-15.5,7.7-29.7,17.2-41.1l-11.1,10.9c-3.4,2.8-6.5,5.9-9.3,9.2l0,0l0,0c-9.8,11.5-16.2,26-17.7,41.8c-0.2,1.2-0.4,2.4-0.4,3.7
			V429c0,2.7,0.5,5.2,1.4,7.6c6.7,35,37.5,61.5,74.4,61.5c16,0,31.4-5.2,44.1-14.2l0,0c0,0,0.2-0.1,0.4-0.3
			c3.7-2.7,7.2-5.7,10.4-9.1c6.3-5.8,14.5-13.6,21.8-21.8C403.8,468,383.6,477.1,362.2,477.1z"/>
		<path class="st0" d="M423.1,446.5c-0.1,0.1-0.2,0.2-0.2,0.3C422.9,446.7,423,446.6,423.1,446.5z"/>
		<path class="st0" d="M426.1,334.3L426.1,334.3c-0.1,0-0.2,0.1-0.2,0.2L426.1,334.3z"/>
		<path class="st0" d="M387.8,335.9c-5.8-8.5-15.4-13.6-25.6-13.6c-14,0-25.9,9.4-29.6,22.2c2.8-0.8,5.7-1.3,8.7-1.3
			c10.3,0,19.9,5.1,25.6,13.6c4.3,6.4,11.4,9.9,18.6,9.9c4.3,0,8.7-1.2,12.6-3.9c2.6-1.8,4.7-4,6.3-6.5l13.5-13.8
			c-3.6,2.1-7.5,3.2-11.5,3.2C399.3,345.8,392.2,342.4,387.8,335.9z"/>
		<path class="st0" d="M182.8,321.9c-14,0-25.9,9.4-29.6,22.2c2.8-0.8,5.7-1.3,8.7-1.3c17,0,30.9,13.9,30.9,30.9v16h20.9v-36.9
			C213.6,335.8,199.8,321.9,182.8,321.9z"/>
		<path class="st0" d="M135.1,294l-0.4,0.4C134.8,294.2,135,294.1,135.1,294L135.1,294z"/>
		<path class="st0" d="M253.4,467.3L253.4,467.3c-0.3,0.2-0.5,0.5-0.8,0.8L253.4,467.3z"/>
		<path class="st0" d="M106.9,453V349.6c0-1.1,0.2-2.2,0.3-3.2c1.3-15.6,7.5-29.9,16.9-41.4l-9.4,9.5c-4.6,3.6-8.7,7.8-12.3,12.4
			l0,0l0,0c-8.9,11.3-14.7,25.2-16,40.4c-0.2,1.1-0.3,2.1-0.3,3.3v103.4c0,12.4,10.1,22.5,22.5,22.5c5.7,0,10.9-2.1,14.9-5.7l0,0
			l0.3-0.3c0.5-0.5,1-1,1.5-1.5l19.5-19.5c-4,3.7-9.3,6-15.1,6C117,475.5,106.9,465.4,106.9,453z"/>
		<path class="st0" d="M213.6,453v-18.3h-61.8V453c0,0.9-0.2,1.7-0.3,2.6h41.1v18.3c0,12.4,10.1,22.5,22.5,22.5
			c5.7,0,10.9-2.1,14.9-5.7l0,0l0.3-0.3c0.5-0.5,1-1,1.5-1.5l19.5-19.5c-4,3.7-9.3,6-15.1,6C223.7,475.5,213.6,465.4,213.6,453z"/>
		<path class="st0" d="M146.7,467.3L146.7,467.3c-0.3,0.2-0.5,0.5-0.8,0.8L146.7,467.3z"/>
		<path class="st0" d="M882.2,392.3H798v8c0,4.6,1.1,9,2.9,13h56.5c5.5-7.1,14.5-10.1,23-8l19.1-21l-0.1-0.1
			C895.3,389.1,889.2,392.3,882.2,392.3z"/>
		<path class="st0" d="M854.5,334.9c-5.8-8.5-15.3-13.6-25.6-13.6c-14,0-25.8,9.4-29.5,22.3c2.7-0.8,5.6-1.3,8.6-1.3
			c6.2,0,12.1,1.9,17.1,5.2h34.4C858.7,342.9,857,338.7,854.5,334.9z"/>
		<path class="st0" d="M828.8,476.1c-36,0-66.2-25.3-73.9-59c-1.2-2.8-1.9-5.8-1.9-9.1v-58.4c0-0.9,0.2-1.7,0.3-2.6
			c1.1-16,7.2-30.7,16.7-42.4l-9.6,9.5c-15.9,12.9-26.6,32.1-28,53.8c-0.1,0.9-0.3,1.7-0.3,2.6V429c0,3.2,0.7,6.3,1.9,9.1
			c7.7,33.7,37.9,59,73.9,59c0,0,0.1,0,0.1,0c15.5,0,30.4-4.8,42.8-13.4l0.1,0.2c0,0,0.6-0.5,1.8-1.5c3.8-2.8,7.4-6,10.7-9.5
			c5.5-5,12-11.4,18.1-18.1C867.5,468.2,848.7,476.1,828.8,476.1C828.9,476.1,828.9,476.1,828.8,476.1z"/>
		<path class="st0" d="M252.7,468.1l-1.4,1.4C251.7,469.1,252.2,468.6,252.7,468.1z"/>
		<path class="st0" d="M145.9,468.1l-1.4,1.4C145,469.1,145.5,468.6,145.9,468.1z"/>
		<path class="st0" d="M500.9,468.1l-1.4,1.4C499.9,469.1,500.4,468.6,500.9,468.1z"/>
		<path class="st0" d="M422.8,446.8c-0.2,0.3-0.5,0.7-0.7,1C422.3,447.5,422.6,447.2,422.8,446.8z"/>
		<path class="st0" d="M421.6,448.4c-1.2,1.4-2.4,2.8-3.6,4.2C419.3,451.2,420.5,449.8,421.6,448.4z"/>
	</g>
</g>
</svg>
