<?xml version="1.0" encoding="utf-8"?>
<!-- Generator: Adobe Illustrator 23.0.3, SVG Export Plug-In . SVG Version: 6.00 Build 0)  -->
<svg version="1.1" id="Calque_1" xmlns="http://www.w3.org/2000/svg" xmlns:xlink="http://www.w3.org/1999/xlink" x="0px" y="0px"
	 viewBox="0 0 975.3 825.2" style="enable-background:new 0 0 975.3 825.2;" xml:space="preserve">
<style type="text/css">
	.st0{fill:#353449;}
</style>
<title>work time</title>
<g>
	<g>
		<path class="st0" d="M265.9,691l37.3-80.3c0.4-0.7,1.2-1.3,2-1.3h1.2c0.8,0,1.7,0.6,2,1.3l37.3,80.3c0.7,1.6-0.2,3.1-2,3.1h-13.2
			c-2.1,0-3.1-0.7-4.2-3l-4.3-9.4h-32.5l-4.3,9.5c-0.6,1.4-1.9,2.9-4.3,2.9H268C266.2,694.1,265.2,692.6,265.9,691z M315,665.5
			l-9.1-19.7h-0.1l-8.9,19.7H315z"/>
		<path class="st0" d="M439.7,609.4c11.9,0,20.8,3.7,28.9,11.1c1.1,1,1.1,2.4,0.1,3.3l-9.3,9.7c-0.8,0.8-2.1,0.8-3,0
			c-4.4-3.9-10.3-6.1-16.1-6.1c-13.5,0-23.4,11.2-23.4,24.6c0,13.2,10,24.2,23.5,24.2c5.6,0,11.7-2,16-5.7c0.8-0.7,2.4-0.7,3.1,0.1
			l9.3,9.9c0.8,0.8,0.7,2.4-0.1,3.2c-8.1,7.9-18.4,11.6-29,11.6c-23.9,0-43.1-19-43.1-42.8C396.6,628.6,415.8,609.4,439.7,609.4z"/>
		<path class="st0" d="M538.9,611.3c0.1-1.1,1.2-1.9,2.1-1.9h1.9c0.6,0,1.7,0.5,2,1.2l27.7,51.5h0.2l27.7-51.5
			c0.4-0.7,1.4-1.2,2-1.2h1.9c1,0,2,0.8,2.1,1.9l13.5,80.2c0.2,1.6-0.8,2.6-2.3,2.6h-14.1c-1.1,0-2.1-1-2.3-1.9l-5.4-36.9H596
			l-20,38.7c-0.4,0.7-1.4,1.3-2,1.3h-2.1c-0.7,0-1.7-0.6-2-1.3l-20.2-38.7h-0.2l-5.2,36.9c-0.1,1-1.1,1.9-2.3,1.9h-14.1
			c-1.4,0-2.5-1.1-2.3-2.6L538.9,611.3z"/>
		<path class="st0" d="M683.2,612.9c0-1.2,1-2.3,2.3-2.3h49.4c1.3,0,2.3,1.1,2.3,2.3v13c0,1.2-1,2.3-2.3,2.3h-33V643H729
			c1.2,0,2.3,1.1,2.3,2.3v13c0,1.3-1.1,2.3-2.3,2.3h-27.2v16.1h33c1.3,0,2.3,1.1,2.3,2.3v13c0,1.2-1,2.3-2.3,2.3h-49.4
			c-1.3,0-2.3-1.1-2.3-2.3V612.9z"/>
	</g>
	<g>
		<path class="st0" d="M483.8,173.1c10,0,18.1-8.1,18.1-18.1c0-10-8.1-18.1-18.1-18.1c-10,0-18.1,8.1-18.1,18.1
			C465.6,164.9,473.8,173.1,483.8,173.1z"/>
		<path class="st0" d="M532,138.2c11.6,0,20.9-9.4,20.9-20.9c0-11.6-9.4-20.9-20.9-20.9c-11.6,0-20.9,9.4-20.9,20.9
			C511,128.8,520.4,138.2,532,138.2z"/>
		<path class="st0" d="M629.6,448l-82.2-135.8v-75.9h2c11.9,0,21.6-9.6,21.6-21.6s-9.6-21.6-21.6-21.6h-95.9
			c-11.9,0-21.6,9.6-21.6,21.6s9.6,21.6,21.6,21.6h2v75.9L373.2,448c-14.4,28.9,6.6,62.9,39,62.9h178.4C622.9,511,644,477,629.6,448
			z M559.2,470H443.5c-12.9,0-20.6-14.5-13.2-25.2l59.2-85.7c6.5-9.4,20.3-9.2,26.6,0.3l56.5,85.7C579.6,455.8,572,470,559.2,470z"
			/>
	</g>
</g>
</svg>
